#N canvas 183 132 642 779 12;
#X obj 79 575 rabbit.client;
#X obj 79 93 loadbang;
#X obj 111 172 print;
#X msg 111 147 open connection;
#X obj 79 122 t b b;
#X obj 137 638 print connected;
#X obj 167 607 print info;
#X obj 79 697 print client;
#X msg 338 494 toggle \$1;
#X msg 243 494 integer \$1;
#X msg 144 493 sensor1 \$1;
#X obj 187 311 int;
#X obj 187 334 t a a;
#X obj 187 357 % 4;
#X obj 187 380 sel 0 1 2 3, f 42;
#X obj 238 333 + 1;
#X obj 144 431 random 100;
#X obj 243 430 random 100;
#X obj 144 462 / 100;
#X obj 438 411 random 100;
#X obj 356 451 tgl 15 0 empty empty empty 17 7 0 10 #fcfcfc #000000 #000000 0 1;
#X obj 187 288 metro 100;
#X obj 438 465 tosymbol;
#X msg 438 438 test \$1;
#X msg 438 494 mysymbol \$1;
#X text 17 21 ()();
#X text 24 35 oO RabbitControl for Pd;
#X text 31 48 x;
#X text 207 190 connect to rcp server via websocket;
#X msg 79 215 connect wss://rabbithole.rabbitcontrol.cc/public/rcpclient/connect?key=pd_test;
#X connect 0 0 7 0;
#X connect 0 2 5 0;
#X connect 0 2 21 0;
#X connect 0 3 6 0;
#X connect 1 0 4 0;
#X connect 3 0 2 0;
#X connect 4 0 29 0;
#X connect 4 1 3 0;
#X connect 8 0 0 0;
#X connect 9 0 0 0;
#X connect 10 0 0 0;
#X connect 11 0 12 0;
#X connect 12 0 13 0;
#X connect 12 1 15 0;
#X connect 13 0 14 0;
#X connect 14 0 16 0;
#X connect 14 1 17 0;
#X connect 14 2 20 0;
#X connect 14 3 19 0;
#X connect 15 0 11 1;
#X connect 16 0 18 0;
#X connect 17 0 9 0;
#X connect 18 0 10 0;
#X connect 19 0 23 0;
#X connect 20 0 8 0;
#X connect 21 0 11 0;
#X connect 22 0 24 0;
#X connect 23 0 22 0;
#X connect 24 0 0 0;
#X connect 29 0 0 0;
