#N canvas 70 61 411 449 12;
#X obj 59 247 rabbit.client;
#X text 71 196 open connection to rcp server via websocket;
#X obj 59 93 loadbang;
#X obj 91 172 print;
#X msg 91 147 open connection;
#X obj 59 122 t b b;
#X obj 117 310 print connected;
#X obj 147 279 print info;
#X obj 88 337 print parameter_id;
#X obj 59 369 print client;
#X text 17 21 ()();
#X text 24 35 oO RabbitControl for Pd;
#X text 31 48 x;
#X msg 59 215 connect ws://192.168.7.1:10000;
#X connect 0 0 9 0;
#X connect 0 1 8 0;
#X connect 0 2 6 0;
#X connect 0 3 7 0;
#X connect 2 0 5 0;
#X connect 4 0 3 0;
#X connect 5 0 13 0;
#X connect 5 1 4 0;
#X connect 13 0 0 0;
