#N canvas 127 106 579 501 12;
#X obj 352 331 rabbit.client;
#X obj 250 411 sizeprefix;
#X obj 462 411 slipdecoder;
#X obj 372 411 slipencoder;
#X obj 332 411 sppp;
#X text 64 328 RabbitControl;
#X obj 45 252 pdcontrol;
#X msg 45 178 browse https://github.com/rabbitcontrol/RCP;
#X obj 250 371 rabbit.format 1;
#X obj 365 371 rabbit.parse;
#X text 64 370 RabbitControl utilities;
#X text 54 206 please find the source-code of the Pd externals here:;
#X msg 55 227 browse https://github.com/rabbitcontrol/rcp-flext;
#X msg 45 157 browse http://rabbitcontrol.cc;
#X text 64 410 Framing utilities;
#X text 43 299 Object overview;
#X text 14 465 written by Ingo Randolf \, 2022-2025;
#X text 17 21 ()();
#X text 24 35 oO RabbitControl for Pd;
#X text 31 48 x;
#X text 44 103 RabbitControl is a protocol for remote controling parameters exposed from Pd., f 39;
#N canvas 931 380 342 125 META 0;
#X text 12 25 KEYWORDS remote control;
#X text 12 85 AUTHOR Ingo Randolf;
#X text 12 5 DESCRIPTION RabbitControl for pd;
#X text 12 45 LICENSE GPL v3;
#X restore 481 17 pd META;
#X obj 250 331 rabbit.server;
#X connect 7 0 6 0;
#X connect 12 0 6 0;
#X connect 13 0 6 0;
