#N canvas 84 90 765 716 12;
#X obj 67 499 rabbit.client;
#X floatatom 136 316 5 0 0 0 - - - 0;
#X text 343 596 id <group-label-list> <id>;
#X text 344 556 min <group-label-list> <min>;
#X text 344 576 max <group-label-list> <max>;
#X text 343 616 value <group-label-list> <value>;
#X text 343 636 type <group-label-list> <type>;
#X msg 304 433 mybang;
#X msg 268 397 mysymbol bla;
#X msg 269 372 mysymbol a\ string\ test\ bla;
#X floatatom 96 583 5 0 0 0 - - - 0;
#X text 139 582 parameter id;
#X text 146 553 connected;
#X msg 239 338 toggle \$1;
#X obj 155 525 print client_info;
#X obj 47 89 rabbit.client;
#X text 156 89 - rcp client;
#X text 45 669 see also:;
#X obj 123 668 rabbit.server;
#X text 304 237 connect to a rcp server;
#X text 47 123 Rabbitcontrol allows you to control values (parameters) on a remote system in an easy way. The remote system (rcp-server) exposes parameters which are received and controlled by rcp-clients.;
#N canvas 157 94 380 288 parameter-info 0;
#X msg 137 108 info mybang;
#X msg 148 132 readonly mybang;
#X msg 55 70 info sensor;
#X text 34 20 get information about parameters;
#X obj 55 215 s rcp_client;
#X connect 0 0 4 0;
#X connect 1 0 4 0;
#X connect 2 0 4 0;
#X restore 511 337 pd parameter-info;
#X text 344 536 info <group-label-list> <value> <min> <max> <id> <type>;
#X text 121 289 set values;
#X obj 470 480 r rcp_client;
#X obj 67 611 print rcp_client;
#X msg 136 338 sensor \$1;
#X msg 225 480 getrcpversion;
#X obj 125 554 tgl 19 0 empty empty empty 0 -10 0 12 #fcfcfc #000000 #000000 0 1;
#X text 328 515 info output:;
#X obj 67 211 bng 19 250 50 0 empty empty empty 0 -10 0 12 #fcfcfc #000000 #000000;
#X text 17 21 ()();
#X text 24 35 oO RabbitControl for Pd;
#X text 31 48 x;
#N canvas 222 106 342 223 META 0;
#X text 12 25 KEYWORDS remote control;
#X text 12 5 DESCRIPTION A RabbitControl server for pd;
#X text 12 185 AUTHOR Ingo Randolf;
#X text 12 65 INLET_0 data;
#X text 12 105 OUTLET_1 parameter id;
#X text 12 145 OUTLET_3 info outlet;
#X text 12 85 OUTLET_0 client outlet;
#X text 12 125 OUTLET_2 connected;
#X text 12 45 LICENSE GPL v3;
#X restore 561 27 pd META;
#X obj 239 313 tgl 19 0 empty empty empty 0 -10 0 12 #fcfcfc #000000 #000000 0 1;
#X msg 91 238 connect ws://localhost:10000;
#X msg 101 260 disconnect;
#X connect 0 0 25 0;
#X connect 0 1 10 0;
#X connect 0 2 28 0;
#X connect 0 3 14 0;
#X connect 1 0 26 0;
#X connect 7 0 0 0;
#X connect 8 0 0 0;
#X connect 9 0 0 0;
#X connect 13 0 0 0;
#X connect 24 0 0 0;
#X connect 26 0 0 0;
#X connect 27 0 0 0;
#X connect 30 0 0 0;
#X connect 35 0 13 0;
#X connect 36 0 0 0;
#X connect 37 0 0 0;
