#N canvas 199 62 620 631 12;
#X obj 74 216 tgl 15 0 empty empty empty 17 7 0 10 #fcfcfc #000000 #000000 0 1;
#X floatatom 82 238 5 0 0 0 - - - 0;
#X msg 132 347 getlabel;
#X msg 118 323 label test;
#X obj 66 194 bng 15 250 50 0 empty empty empty 17 7 0 10 #fcfcfc #000000 #000000;
#X msg 90 263 symbol test;
#X obj 166 541 print args;
#X msg 379 318 type t;
#X msg 402 416 gettype;
#X msg 379 362 type f;
#X msg 380 340 type i;
#X msg 379 384 type s;
#X msg 379 296 type b;
#X msg 379 270 type ?;
#X text 156 89 - rcpformat;
#X text 398 588 see also:;
#X text 187 262 string packet;
#X text 376 247 choose a type;
#X text 439 295 bang;
#X text 439 317 toggle (boolean);
#X text 439 361 type float;
#X text 439 383 type symbol (string);
#X text 439 269 auto type (default);
#X text 115 302 set a label;
#X msg 257 482 set 2;
#X msg 145 375 clearlabel;
#X text 308 483 set id;
#X text 177 513 optional creation argument: parameter-id default id: 1;
#X text 439 339 type integer;
#X obj 47 89 rabbit.format;
#X obj 64 514 rabbit.format 3;
#X obj 476 587 rabbit.parse;
#X text 45 119 Allows you to format rcp packets independent of a rcp-server. This can be handy if working with serial connections or similar.;
#X text 93 193 a bang-packet;
#X text 102 215 a boolean-packet;
#X text 131 237 a float-packet;
#X obj 64 570 print rcp_packet;
#X text 17 21 ()();
#X text 24 35 oO RabbitControl for Pd;
#X text 31 48 x;
#N canvas 439 130 342 188 META 0;
#X text 12 25 KEYWORDS remote control;
#X text 12 145 AUTHOR Ingo Randolf;
#X text 12 5 DESCRIPTION RabbitControl for pd;
#X text 12 45 LICENSE GPL v3;
#X text 12 65 INLET_0 data;
#X text 12 85 OUTLET_0 rcp packet;
#X text 12 105 OUTLET_1 info outlet;
#X restore 481 17 pd META;
#X connect 0 0 30 0;
#X connect 1 0 30 0;
#X connect 2 0 30 0;
#X connect 3 0 30 0;
#X connect 4 0 30 0;
#X connect 5 0 30 0;
#X connect 7 0 30 0;
#X connect 8 0 30 0;
#X connect 9 0 30 0;
#X connect 10 0 30 0;
#X connect 11 0 30 0;
#X connect 12 0 30 0;
#X connect 13 0 30 0;
#X connect 24 0 30 0;
#X connect 25 0 30 0;
#X connect 30 0 36 0;
#X connect 30 1 6 0;
