#N canvas 53 52 687 639 12;
#X msg 50 189 1 0;
#X text 82 189 info;
#X text 90 211 initialize;
#X msg 70 233 2 18 0 1 0;
#X text 156 234 initialize with id;
#X obj 50 442 list trim;
#X msg 80 255 3 18 0 1 0;
#X text 166 256 discover with id;
#X text 175 278 remove with id;
#X msg 90 277 5 18 0 4 0;
#X obj 50 471 route info initialize discover update remove;
#X obj 233 520 print update;
#X text 449 577 see also:;
#X obj 395 252 pdcontrol;
#X msg 395 202 browse https://github.com/rabbitControl/RCP/blob/master/RCPSpecification.md, f 36;
#X text 188 346 updatevalue for a toggle;
#X obj 95 323 tgl 15 0 empty empty empty 17 7 0 10 #fcfcfc #000000 #000000 0 1;
#X msg 95 345 6 0 2 16 \$1;
#X obj 49 586 print info;
#X obj 111 564 print init;
#X obj 172 542 print discover;
#X obj 294 496 print remove;
#X msg 60 211 2 0;
#X obj 47 89 rabbit.parse;
#X text 146 89 - rcp packet parser;
#X obj 50 387 rabbit.parse;
#X obj 527 576 rabbit.format 1;
#X text 393 180 RabbitControl specification:;
#X text 47 119 Parses rcp packets from a list of bytes. For more information on rcp packets \, please have a look at the RabbitControl specificiation.;
#X text 17 21 ()();
#X text 24 35 oO RabbitControl for Pd;
#X text 31 48 x;
#N canvas 318 190 342 179 META 0;
#X text 12 25 KEYWORDS remote control;
#X text 12 5 DESCRIPTION A RabbitControl server for pd;
#X text 12 145 AUTHOR Ingo Randolf;
#X text 12 65 INLET_0 data;
#X text 12 105 OUTLET_1 parameter id;
#X text 12 45 LICENSE GPL v3;
#X text 12 85 OUTLET_0 rabbit packet outlet;
#X restore 561 27 pd META;
#X obj 131 416 print parameter_id;
#X connect 0 0 25 0;
#X connect 3 0 25 0;
#X connect 5 0 10 0;
#X connect 6 0 25 0;
#X connect 9 0 25 0;
#X connect 10 0 18 0;
#X connect 10 1 19 0;
#X connect 10 2 20 0;
#X connect 10 3 11 0;
#X connect 10 4 21 0;
#X connect 14 0 13 0;
#X connect 16 0 17 0;
#X connect 17 0 25 0;
#X connect 22 0 25 0;
#X connect 25 0 5 0;
#X connect 25 1 33 0;
