#N canvas 63 73 571 392 12;
#X text 363 327 see also:;
#X obj 47 89 sizeprefix;
#X text 135 88 - sizeprefix;
#X obj 441 326 sppp;
#X obj 50 267 sizeprefix;
#X text 138 266 - sizeprefix;
#X obj 117 293 print size_prefix;
#X obj 50 322 print original_list;
#X msg 50 220 1 2 3;
#X text 47 115 Outputs a size prefix of 4 bytes (big endian) at the right outlet. the original list is passed through to the left outlet.;
#X text 47 165 Useful if sending data via e.g. TCP;
#X text 17 21 ()();
#X text 24 35 oO RabbitControl for Pd;
#X text 31 48 x;
#N canvas 410 182 342 181 META 0;
#X text 12 25 KEYWORDS remote control;
#X text 12 145 AUTHOR Ingo Randolf;
#X text 12 45 LICENSE GPL v3;
#X text 12 65 INLET_0 data;
#X text 12 85 OUTLET_0 original list;
#X text 12 105 OUTLET_1 size prefix;
#X text 12 5 DESCRIPTION output size prefix;
#X restore 481 17 pd META;
#X connect 4 0 7 0;
#X connect 4 1 6 0;
#X connect 8 0 4 0;
