#N canvas 92 118 563 321 12;
#X obj 50 218 slipencoder;
#X msg 50 180 1 2 3 192;
#X obj 221 237 slipdecoder;
#X obj 221 259 print decoded;
#X obj 50 244 print slip;
#X obj 47 99 slipdecoder;
#X text 136 99 - slipdecoder;
#X text 369 260 see also:;
#X obj 447 259 slipencoder;
#X text 47 133 Decodes a SLIP packet from a list of bytes (RFC 1055);
#X text 17 21 ()();
#X text 24 35 oO RabbitControl for Pd;
#X text 31 48 x;
#N canvas 410 182 342 156 META 0;
#X text 12 25 KEYWORDS remote control;
#X text 12 125 AUTHOR Ingo Randolf;
#X text 12 45 LICENSE GPL v3;
#X text 12 65 INLET_0 data;
#X text 12 85 OUTLET_0 decoded data;
#X text 12 5 DESCRIPTION SLIP decoder;
#X restore 481 17 pd META;
#X connect 0 0 2 0;
#X connect 0 0 4 0;
#X connect 1 0 0 0;
#X connect 2 0 3 0;
