#N canvas 110 155 584 338 12;
#X obj 48 220 slipencoder;
#X msg 48 182 1 2 3 192;
#X obj 194 239 slipdecoder;
#X obj 194 261 print decoded;
#X obj 48 246 print slip;
#X obj 47 109 slipencoder;
#X text 137 109 - slipencoder;
#X text 355 281 see also:;
#X obj 433 280 slipdecoder;
#X text 45 145 Encodes a list of bytes as SLIP packet (RFC 1055);
#X text 17 21 ()();
#X text 24 35 oO RabbitControl for Pd;
#X text 31 48 x;
#N canvas 410 182 342 156 META 0;
#X text 12 25 KEYWORDS remote control;
#X text 12 125 AUTHOR Ingo Randolf;
#X text 12 45 LICENSE GPL v3;
#X text 12 65 INLET_0 data;
#X text 12 85 OUTLET_0 encoded data;
#X text 12 5 DESCRIPTION SLIP encoder;
#X restore 481 17 pd META;
#X connect 0 0 2 0;
#X connect 0 0 4 0;
#X connect 1 0 0 0;
#X connect 2 0 3 0;
