#N canvas 130 100 617 530 12;
#X text 428 467 see also:;
#X obj 47 109 sppp;
#X text 91 109 - size prefixed packet parser;
#X msg 45 248 0 0 0 3 1 2 3;
#X obj 45 476 print packet;
#X msg 162 385 reset;
#X msg 107 311 1;
#X msg 117 334 2 3;
#X obj 506 466 sizeprefix;
#X text 156 247 a list with packet size and data;
#X obj 45 429 sppp 2048;
#X text 128 428 optional creation argument:;
#X text 138 450 - buffer size (int) default: 1024;
#X msg 88 289 0 \, 0 \, 0 3;
#X text 212 384 reset parser;
#X text 44 149 First 4 bytes (big endian) define the length of a packet. All following bytes are collected and output once all bytes are received.;
#X text 170 288 (1) packet size;
#X text 170 310 (2) send first byte;
#X text 170 333 (3) send more bytes;
#X text 17 21 ()();
#X text 24 35 oO RabbitControl for Pd;
#X text 31 48 x;
#N canvas 410 182 398 156 META 0;
#X text 12 25 KEYWORDS remote control;
#X text 12 125 AUTHOR Ingo Randolf;
#X text 12 45 LICENSE GPL v3;
#X text 12 65 INLET_0 data;
#X text 12 85 OUTLET_0 packet data;
#X text 12 5 DESCRIPTION A size prefixed packet parser;
#X restore 481 17 pd META;
#X text 43 204 This is useful for unframed data transports like TCP.;
#X connect 3 0 10 0;
#X connect 5 0 10 0;
#X connect 6 0 10 0;
#X connect 7 0 10 0;
#X connect 10 0 4 0;
#X connect 13 0 10 0;
