#N canvas 83 36 620 615 12;
#X msg 113 224 expose i integer;
#X msg 125 246 expose t toggle;
#X msg 137 268 expose s mysymbol;
#X msg 149 290 expose b mybang;
#X obj 85 93 loadbang;
#X obj 85 116 t b b b;
#X msg 101 202 expose f sensor1 @min 0 @max 1;
#X obj 66 375 rabbit.server @rabbithole wss://rabbithole.rabbitcontrol.cc/public/rcpserver/connect?key=pd_test_brno;
#X obj 66 471 route update;
#X obj 66 448 list trim;
#X obj 66 516 print server_update;
#X obj 147 494 print server_o;
#X obj 344 432 print clients;
#X msg 369 310 sensor1 \$1;
#X obj 369 261 random 100;
#X obj 369 285 / 100;
#X obj 374 216 bng 15 250 50 0 empty empty empty 17 7 0 10 #fcfcfc #000000 #000000;
#X text 17 21 ()();
#X text 24 35 oO RabbitControl for Pd;
#X text 31 48 x;
#X connect 0 0 7 0;
#X connect 1 0 7 0;
#X connect 2 0 7 0;
#X connect 3 0 7 0;
#X connect 4 0 5 0;
#X connect 5 2 6 0;
#X connect 5 2 0 0;
#X connect 5 2 1 0;
#X connect 5 2 2 0;
#X connect 5 2 3 0;
#X connect 6 0 7 0;
#X connect 7 0 9 0;
#X connect 7 2 12 0;
#X connect 8 0 10 0;
#X connect 8 1 11 0;
#X connect 9 0 8 0;
#X connect 13 0 7 0;
#X connect 14 0 15 0;
#X connect 15 0 13 0;
#X connect 16 0 14 0;
